<mxfile host="app.diagrams.net" modified="2023-02-16T10:52:20.408Z" agent="5.0 (Windows NT 10.0; Win64; x64) AppleWebKit/537.36 (KHTML, like Gecko) Chrome/110.0.0.0 Safari/537.36" etag="sNs1vpF3P_ZPjMgATrwq" version="20.8.20" type="github">
  <diagram id="C5RBs43oDa-KdzZeNtuy" name="Page-1">
    <mxGraphModel dx="1434" dy="800" grid="1" gridSize="10" guides="1" tooltips="1" connect="1" arrows="1" fold="1" page="1" pageScale="1" pageWidth="827" pageHeight="1169" math="0" shadow="0">
      <root>
        <mxCell id="WIyWlLk6GJQsqaUBKTNV-0" />
        <mxCell id="WIyWlLk6GJQsqaUBKTNV-1" parent="WIyWlLk6GJQsqaUBKTNV-0" />
        <mxCell id="sVGOGRyMxyaBshcIkwZn-23" value="" style="edgeStyle=orthogonalEdgeStyle;rounded=0;orthogonalLoop=1;jettySize=auto;html=1;" edge="1" parent="WIyWlLk6GJQsqaUBKTNV-1" source="sVGOGRyMxyaBshcIkwZn-0" target="sVGOGRyMxyaBshcIkwZn-1">
          <mxGeometry relative="1" as="geometry" />
        </mxCell>
        <mxCell id="sVGOGRyMxyaBshcIkwZn-0" value="Start" style="ellipse;whiteSpace=wrap;html=1;" vertex="1" parent="WIyWlLk6GJQsqaUBKTNV-1">
          <mxGeometry x="340" y="40" width="120" height="80" as="geometry" />
        </mxCell>
        <mxCell id="sVGOGRyMxyaBshcIkwZn-24" value="" style="edgeStyle=orthogonalEdgeStyle;rounded=0;orthogonalLoop=1;jettySize=auto;html=1;" edge="1" parent="WIyWlLk6GJQsqaUBKTNV-1" source="sVGOGRyMxyaBshcIkwZn-1" target="sVGOGRyMxyaBshcIkwZn-3">
          <mxGeometry relative="1" as="geometry" />
        </mxCell>
        <mxCell id="sVGOGRyMxyaBshcIkwZn-1" value="podaj tablice a&lt;br&gt;wynik[][]&lt;br&gt;i = 0&lt;br&gt;j = 0" style="rounded=0;whiteSpace=wrap;html=1;" vertex="1" parent="WIyWlLk6GJQsqaUBKTNV-1">
          <mxGeometry x="340" y="180" width="120" height="60" as="geometry" />
        </mxCell>
        <mxCell id="sVGOGRyMxyaBshcIkwZn-80" value="" style="edgeStyle=orthogonalEdgeStyle;rounded=0;orthogonalLoop=1;jettySize=auto;html=1;" edge="1" parent="WIyWlLk6GJQsqaUBKTNV-1" source="sVGOGRyMxyaBshcIkwZn-3" target="sVGOGRyMxyaBshcIkwZn-77">
          <mxGeometry relative="1" as="geometry" />
        </mxCell>
        <mxCell id="sVGOGRyMxyaBshcIkwZn-92" value="" style="edgeStyle=orthogonalEdgeStyle;rounded=0;orthogonalLoop=1;jettySize=auto;html=1;" edge="1" parent="WIyWlLk6GJQsqaUBKTNV-1" source="sVGOGRyMxyaBshcIkwZn-3" target="sVGOGRyMxyaBshcIkwZn-89">
          <mxGeometry relative="1" as="geometry" />
        </mxCell>
        <mxCell id="sVGOGRyMxyaBshcIkwZn-3" value="i &amp;lt; a.długość" style="rhombus;whiteSpace=wrap;html=1;" vertex="1" parent="WIyWlLk6GJQsqaUBKTNV-1">
          <mxGeometry x="340" y="411" width="120" height="120" as="geometry" />
        </mxCell>
        <mxCell id="sVGOGRyMxyaBshcIkwZn-79" value="" style="edgeStyle=orthogonalEdgeStyle;rounded=0;orthogonalLoop=1;jettySize=auto;html=1;" edge="1" parent="WIyWlLk6GJQsqaUBKTNV-1" source="sVGOGRyMxyaBshcIkwZn-77" target="sVGOGRyMxyaBshcIkwZn-78">
          <mxGeometry relative="1" as="geometry" />
        </mxCell>
        <mxCell id="sVGOGRyMxyaBshcIkwZn-83" value="" style="edgeStyle=orthogonalEdgeStyle;rounded=0;orthogonalLoop=1;jettySize=auto;html=1;" edge="1" parent="WIyWlLk6GJQsqaUBKTNV-1" source="sVGOGRyMxyaBshcIkwZn-77" target="sVGOGRyMxyaBshcIkwZn-82">
          <mxGeometry relative="1" as="geometry" />
        </mxCell>
        <mxCell id="sVGOGRyMxyaBshcIkwZn-77" value="a[i] istnieje w &lt;br&gt;wynik[][0]" style="rhombus;whiteSpace=wrap;html=1;" vertex="1" parent="WIyWlLk6GJQsqaUBKTNV-1">
          <mxGeometry x="497" y="411" width="120" height="120" as="geometry" />
        </mxCell>
        <mxCell id="sVGOGRyMxyaBshcIkwZn-78" value="wynik[j][0] = a[i]&lt;br&gt;wynik[j][1] = 1&lt;br&gt;j++&lt;br&gt;i++" style="rounded=0;whiteSpace=wrap;html=1;" vertex="1" parent="WIyWlLk6GJQsqaUBKTNV-1">
          <mxGeometry x="657" y="441" width="120" height="60" as="geometry" />
        </mxCell>
        <mxCell id="sVGOGRyMxyaBshcIkwZn-81" value="NIE" style="text;html=1;strokeColor=none;fillColor=none;align=center;verticalAlign=middle;whiteSpace=wrap;rounded=0;" vertex="1" parent="WIyWlLk6GJQsqaUBKTNV-1">
          <mxGeometry x="597" y="441" width="60" height="30" as="geometry" />
        </mxCell>
        <mxCell id="sVGOGRyMxyaBshcIkwZn-82" value="wynik[j][1] += 1&lt;br&gt;i++" style="rounded=0;whiteSpace=wrap;html=1;" vertex="1" parent="WIyWlLk6GJQsqaUBKTNV-1">
          <mxGeometry x="497" y="316" width="120" height="60" as="geometry" />
        </mxCell>
        <mxCell id="sVGOGRyMxyaBshcIkwZn-84" value="TAK" style="text;html=1;strokeColor=none;fillColor=none;align=center;verticalAlign=middle;whiteSpace=wrap;rounded=0;" vertex="1" parent="WIyWlLk6GJQsqaUBKTNV-1">
          <mxGeometry x="507" y="381" width="60" height="30" as="geometry" />
        </mxCell>
        <mxCell id="sVGOGRyMxyaBshcIkwZn-85" value="TAK" style="text;html=1;strokeColor=none;fillColor=none;align=center;verticalAlign=middle;whiteSpace=wrap;rounded=0;" vertex="1" parent="WIyWlLk6GJQsqaUBKTNV-1">
          <mxGeometry x="447" y="441" width="60" height="30" as="geometry" />
        </mxCell>
        <mxCell id="sVGOGRyMxyaBshcIkwZn-86" value="NIE" style="text;html=1;strokeColor=none;fillColor=none;align=center;verticalAlign=middle;whiteSpace=wrap;rounded=0;" vertex="1" parent="WIyWlLk6GJQsqaUBKTNV-1">
          <mxGeometry x="350" y="530" width="60" height="30" as="geometry" />
        </mxCell>
        <mxCell id="sVGOGRyMxyaBshcIkwZn-87" value="" style="endArrow=classic;html=1;rounded=0;" edge="1" parent="WIyWlLk6GJQsqaUBKTNV-1">
          <mxGeometry width="50" height="50" relative="1" as="geometry">
            <mxPoint x="717" y="440" as="sourcePoint" />
            <mxPoint x="400" y="288" as="targetPoint" />
            <Array as="points">
              <mxPoint x="717" y="288" />
            </Array>
          </mxGeometry>
        </mxCell>
        <mxCell id="sVGOGRyMxyaBshcIkwZn-88" value="" style="endArrow=classic;html=1;rounded=0;exitX=0.5;exitY=0;exitDx=0;exitDy=0;" edge="1" parent="WIyWlLk6GJQsqaUBKTNV-1" source="sVGOGRyMxyaBshcIkwZn-82">
          <mxGeometry width="50" height="50" relative="1" as="geometry">
            <mxPoint x="357" y="426" as="sourcePoint" />
            <mxPoint x="557" y="290" as="targetPoint" />
          </mxGeometry>
        </mxCell>
        <mxCell id="sVGOGRyMxyaBshcIkwZn-91" value="" style="edgeStyle=orthogonalEdgeStyle;rounded=0;orthogonalLoop=1;jettySize=auto;html=1;" edge="1" parent="WIyWlLk6GJQsqaUBKTNV-1" source="sVGOGRyMxyaBshcIkwZn-89" target="sVGOGRyMxyaBshcIkwZn-90">
          <mxGeometry relative="1" as="geometry" />
        </mxCell>
        <mxCell id="sVGOGRyMxyaBshcIkwZn-89" value="Wyświetl wynik" style="whiteSpace=wrap;html=1;" vertex="1" parent="WIyWlLk6GJQsqaUBKTNV-1">
          <mxGeometry x="340" y="571" width="120" height="60" as="geometry" />
        </mxCell>
        <mxCell id="sVGOGRyMxyaBshcIkwZn-90" value="Koniec" style="ellipse;whiteSpace=wrap;html=1;" vertex="1" parent="WIyWlLk6GJQsqaUBKTNV-1">
          <mxGeometry x="340" y="676" width="120" height="80" as="geometry" />
        </mxCell>
      </root>
    </mxGraphModel>
  </diagram>
</mxfile>
